<svg width="197" height="223" viewBox="0 0 197 223" fill="none" xmlns="http://www.w3.org/2000/svg">
<path d="M110.372 210.684C61.7116 221.721 13.3088 191.256 2.2617 142.637C-8.78535 94.0189 21.7067 45.6584 70.3676 34.621L88.587 114.805L75.3478 112.641L61.3288 50.9434C26.9915 65.7585 6.00551 98.8746 15.2622 139.614C24.519 180.353 59.4772 199.915 94.8504 198.473L82.1635 145.522L93.0119 134.279L110.372 210.684Z" fill="white"/>
<path d="M67.7209 158.304L56.0706 114.862C54.9199 110.571 58.8495 106.645 63.1438 107.795L89.2814 114.792L91.1241 123.46L65.2524 116.969L75.3591 152.311L93.2707 133.558L95.2798 143.009L77.3831 160.89C74.2394 164.031 68.8716 162.594 67.7209 158.304Z" fill="#FFDB24"/>
<path d="M86.6284 2.25953C135.289 -8.77738 183.692 21.6885 194.739 70.3069C205.785 118.925 175.293 167.285 126.632 178.322L111.778 112.948L122.945 102.129L136.391 162.475C170.343 148.291 193.223 113.385 184.046 72.9952C174.869 32.6056 138.579 8.36378 103.158 13.3258L117.641 78.3272L103.158 71.8357L86.6284 2.25953Z" fill="white"/>
<path d="M142.92 93.097L113.378 122.322L111.344 111.088L134.574 91.6326L104.845 81.9814L102.484 71.1144L141.354 85.8514C144.44 86.9069 145.295 90.8631 142.92 93.097Z" fill="#FFDB24"/>
<path d="M70.0246 12.9829L63.5275 22.3594L75.0779 28.8509L70.0246 12.9829Z" fill="#FFDB24"/>
<path d="M122.002 199.071L144.381 202.677L136.44 212.054L122.002 199.071Z" fill="#FFDB24"/>
<path d="M137.162 146.418L140.049 154.352C148.953 148.101 168.492 132.426 175.423 119.731C167.722 127.906 149.29 144.687 137.162 146.418Z" fill="white"/>
<path d="M110.451 218.545L114.783 222.873C102.27 223.354 73.4898 222.729 64.2494 216.382C76.0405 217.824 102.943 220.276 110.451 218.545Z" fill="white"/>
</svg>

