<svg width="24" height="28" viewBox="0 0 24 28" fill="none" xmlns="http://www.w3.org/2000/svg">
<path d="M13.4464 25.667C7.51817 27.0117 1.62137 23.3002 0.275537 17.3771C-1.0703 11.4541 2.64447 5.56245 8.5727 4.21779L10.7923 13.9864L9.17943 13.7228L7.47153 6.2063C3.28831 8.01119 0.731636 12.0456 1.85936 17.0088C2.98708 21.9719 7.24595 24.3551 11.5554 24.1794L10.0098 17.7286L11.3314 16.3589L13.4464 25.667Z" fill="black"/>
<path d="M8.25027 19.2857L6.83094 13.9933C6.69075 13.4706 7.16948 12.9923 7.69264 13.1324L10.8769 13.9849L11.1014 15.0408L7.94953 14.25L9.1808 18.5557L11.3629 16.271L11.6077 17.4224L9.42738 19.6009C9.0444 19.9835 8.39045 19.8084 8.25027 19.2857Z" fill="#FFDB24"/>
<path d="M10.5537 0.275272C16.482 -1.06933 22.3787 2.64225 23.7245 8.5653C25.0703 14.4884 21.3554 20.38 15.4272 21.7246L13.6176 13.7602L14.978 12.4421L16.6161 19.7939C20.7524 18.0659 23.5398 13.8134 22.4218 8.89282C21.3038 3.97225 16.8827 1.01894 12.5675 1.62344L14.3319 9.5424L12.5675 8.75156L10.5537 0.275272Z" fill="black"/>
<path d="M17.4115 11.3418L13.8125 14.9022L13.5648 13.5336L16.3949 11.1634L12.773 9.98758L12.4853 8.66369L17.2207 10.459C17.5967 10.5876 17.7009 11.0696 17.4115 11.3418Z" fill="#FFDB24"/>
<path d="M8.53092 1.58167L7.73939 2.72399L9.14655 3.51483L8.53092 1.58167Z" fill="#FFDB24"/>
<path d="M14.8631 24.2523L17.5895 24.6917L16.6221 25.834L14.8631 24.2523Z" fill="#FFDB24"/>
<path d="M16.71 17.8378L17.0618 18.8043C18.1465 18.0428 20.527 16.1331 21.3713 14.5865C20.4332 15.5824 18.1876 17.6269 16.71 17.8378Z" fill="black"/>
<path d="M13.456 26.6248L13.9837 27.152C12.4592 27.2106 8.95307 27.1345 7.82734 26.3612C9.26382 26.5369 12.5413 26.8357 13.456 26.6248Z" fill="black"/>
</svg>

